<?xml version="1.0" encoding="UTF-8"?>
<svg xmlns="http://www.w3.org/2000/svg" width="16" height="16" viewBox="0 0 16 16">
  <path fill="currentColor" d="M8 1a7 7 0 1 0 0 14A7 7 0 0 0 8 1zM2 8a6 6 0 1 1 12 0A6 6 0 0 1 2 8z"/>
  <path fill="currentColor" d="M5.255 5.786a.5.5 0 0 1 .531-.47 3.043 3.043 0 0 1 .89.153c.56.19 1.074.58 1.324 1.196.25.617.223 1.29-.057 1.908-.245.54-.621.918-.96 1.177-.34.26-.638.41-.812.482a.5.5 0 1 1-.372-.928c.126-.05.348-.163.6-.358.25-.193.5-.455.675-.836.193-.427.2-.847.04-1.24-.157-.389-.472-.636-.875-.77a2.04 2.04 0 0 0-.597-.103.5.5 0 0 1-.47-.531z"/>
  <path fill="currentColor" d="M8 11.5a.75.75 0 1 1 0-1.5.75.75 0 0 1 0 1.5z"/>
</svg>
